# xmcd
#
# Track frame offsets: 
#        150
#        11373
#        29902
#        46839
#        58633
#        74744
#        92063
#        108069
#        127836
#        142426
#        157088
#        174800
#
# Disc length: 2560 seconds
#
# Revision: 0
# Processed by: cddbd v1.5.2PL0 Copyright (c) Steve Scherf et al.
# Submitted via: ExactAudioCopy v1.3
#
DISCID=a409fe0c
DTITLE=Nighthawks - Damn Good Time!
DYEAR=2012
DGENRE=Harmonica Blues, Electric Blues, Modern Electric Blues
TTITLE0=Too Much
TTITLE1=Who You're Workin' For
TTITLE2=Bring Your Sister
TTITLE3=Damn Good Time
TTITLE4=Send For Me
TTITLE5=Minimum Wage
TTITLE6=Georgia Slop
TTITLE7=Night Work
TTITLE8=Let's Work Together
TTITLE9=Smack Dab in the Middle
TTITLE10=Down to My Last Million Tears
TTITLE11=Heartbreak Shake
EXTD=
EXTT0=
EXTT1=
EXTT2=
EXTT3=
EXTT4=
EXTT5=
EXTT6=
EXTT7=
EXTT8=
EXTT9=
EXTT10=
EXTT11=
PLAYORDER=
